<?xml version="1.0" encoding="UTF-8" standalone="no"?>
<!-- Created with Inkscape (http://www.inkscape.org/) -->

<svg
   xmlns:dc="http://purl.org/dc/elements/1.1/"
   xmlns:cc="http://creativecommons.org/ns#"
   xmlns:rdf="http://www.w3.org/1999/02/22-rdf-syntax-ns#"
   xmlns:svg="http://www.w3.org/2000/svg"
   xmlns="http://www.w3.org/2000/svg"
   xmlns:sodipodi="http://sodipodi.sourceforge.net/DTD/sodipodi-0.dtd"
   xmlns:inkscape="http://www.inkscape.org/namespaces/inkscape"
   width="210mm"
   height="297mm"
   viewBox="0 0 744.09448819 1052.3622047"
   id="svg4630"
   version="1.1"
   inkscape:version="0.91 r13725"
   sodipodi:docname="back-blue.svg">
  <defs
     id="defs4632" />
  <sodipodi:namedview
     id="base"
     pagecolor="#ffffff"
     bordercolor="#666666"
     borderopacity="1.0"
     inkscape:pageopacity="0.0"
     inkscape:pageshadow="2"
     inkscape:zoom="0.7"
     inkscape:cx="351.16811"
     inkscape:cy="543.14409"
     inkscape:document-units="px"
     inkscape:current-layer="layer1"
     showgrid="false"
     inkscape:window-width="1920"
     inkscape:window-height="1043"
     inkscape:window-x="0"
     inkscape:window-y="0"
     inkscape:window-maximized="1" />
  <metadata
     id="metadata4635">
    <rdf:RDF>
      <cc:Work
         rdf:about="">
        <dc:format>image/svg+xml</dc:format>
        <dc:type
           rdf:resource="http://purl.org/dc/dcmitype/StillImage" />
        <dc:title></dc:title>
      </cc:Work>
    </rdf:RDF>
  </metadata>
  <g
     inkscape:label="Layer 1"
     inkscape:groupmode="layer"
     id="layer1">
    <g
       transform="translate(32.047255,-386.1811)"
       id="g4442">
      <rect
         y="772.88464"
         x="0.52245039"
         height="278.95511"
         width="678.95508"
         id="rect3347-3-7-1"
         style="opacity:1;fill:#35a0e0;fill-opacity:1;fill-rule:evenodd;stroke:#35a0e0;stroke-width:1.04490077;stroke-opacity:1" />
      <text
         sodipodi:linespacing="125%"
         id="text4979-7-3-6"
         y="1040.9877"
         x="120.04394"
         style="font-style:normal;font-weight:normal;font-size:40px;line-height:125%;font-family:sans-serif;letter-spacing:0px;word-spacing:0px;fill:#ffffff;fill-opacity:1;stroke:none;stroke-width:1px;stroke-linecap:butt;stroke-linejoin:miter;stroke-opacity:1"
         xml:space="preserve"><tspan
           style="font-style:normal;font-variant:normal;font-weight:bold;font-stretch:normal;font-size:20px;font-family:Sawasdee;-inkscape-font-specification:'Sawasdee Bold';fill:#ffffff;fill-opacity:1"
           y="1040.9877"
           x="120.04394"
           id="tspan4981-8-4-0"
           sodipodi:role="line">Check value: https://xrpcharts.ripple.com/#/</tspan></text>
      <path
         style="fill:#ffffff"
         inkscape:connector-curvature="0"
         class="st1"
         d="m 268.41752,894.04555 c -1.47594,-0.49197 -4.46564,-0.98394 -7.41748,-0.98394 -8.93127,0 -18.31666,6.92551 -18.31666,15.85676 l 0,42.08285 -20.32237,0 0,-74.78033 19.30057,0 0,7.41748 c 4.46563,-5.44958 12.86708,-8.93125 21.79833,-8.93125 2.9897,0 4.46562,0.49197 6.92551,0.49197 l -1.9679,18.84646 z m 22.78227,-57.44763 c 6.92548,0 12.86706,5.44958 12.86706,12.86706 0,7.41748 -5.94158,12.86706 -13.35906,12.86706 -7.41748,0 -13.35903,-5.44958 -13.35903,-12.86706 0.49198,-7.41748 6.43352,-12.86706 13.85103,-12.86706 m 9.91519,114.4033 -20.32237,0 0,-74.78033 20.32237,0 0,74.78033 z m 59.41555,-76.25624 c -8.40144,0 -15.85678,2.9897 -21.79832,7.41748 l 0,-5.94157 -19.79257,0 0,111.90561 20.28454,0 0,-42.57486 c 5.94157,4.46564 12.37509,6.92551 20.32239,6.92551 10.89915,0 21.79831,-4.9576 28.23185,-12.86705 5.94155,-6.92552 9.42322,-15.85677 9.42322,-26.26395 -0.0379,-21.76047 -16.34873,-38.60117 -36.67111,-38.60117 m -2.45989,59.41553 c -12.37509,0 -20.81437,-8.40144 -20.81437,-20.81436 0,-12.37508 8.40145,-20.81437 20.81437,-20.81437 10.89918,0 19.3006,9.42325 19.3006,20.81437 0,11.92095 -8.93125,20.81436 -19.3006,20.81436 m 141.1214,-93.09695 20.32237,0 0,109.93766 -20.32237,0 z m 102.02821,98.05456 c -7.41749,8.40143 -19.3006,13.35903 -30.69173,13.35903 -22.29029,0 -39.13099,-15.36479 -39.13099,-39.131 0,-20.81437 14.34299,-39.131 36.63326,-39.131 20.81437,0 35.64933,17.33269 35.64933,38.14706 0,1.96791 0,3.97365 -0.49197,5.94154 l -52.49002,0 c 0.98394,10.40719 9.42321,17.82467 20.32236,17.82467 8.40145,0 15.36479,-4.95761 18.80864,-8.40144 l 11.39112,11.39114 z m -18.84646,-35.15735 c -0.49197,-6.43352 -6.43352,-13.35903 -14.8728,-13.35903 -8.40144,0 -15.36479,6.43351 -15.85676,13.35903 l 30.72956,0 z M 450.67563,874.74498 c -8.40142,0 -15.85676,2.9897 -21.7983,7.41748 l 0,-5.94157 -19.30061,0 0,111.90561 20.3224,0 0,-42.57486 c 5.94154,4.46564 12.37509,6.92551 20.3224,6.92551 10.89915,0 21.7983,-4.9576 28.23184,-12.86705 5.94155,-6.92552 9.42322,-15.85677 9.42322,-26.26395 -0.56766,-21.76047 -16.91639,-38.60117 -37.20095,-38.60117 m -2.49771,59.41553 c -12.37509,0 -20.81436,-8.40144 -20.81436,-20.81436 0,-12.37508 8.40142,-20.81437 20.81436,-20.81437 10.89915,0 19.30058,9.42325 19.30058,20.81437 0.0379,11.92095 -8.8934,20.81436 -19.30058,20.81436 m -293.6339,-85.14967 c -8.40144,4.95761 -13.35902,13.85102 -13.35902,23.27424 0,4.95761 1.9679,9.91521 4.46561,14.34299 1.9679,3.97367 2.9897,10.89918 -3.97364,14.343 -4.95761,2.9897 -11.39115,0.98396 -14.343,-3.97365 -2.9897,-3.97366 -6.43354,-7.90945 -10.89915,-10.89915 -8.40144,-4.95761 -18.316634,-4.95761 -26.755912,0 -8.401444,4.95758 -13.359051,13.85099 -13.359051,23.27424 0,9.42321 4.957607,18.31663 13.359051,23.27424 8.401422,4.95761 18.316632,4.95761 26.755912,0 4.46561,-2.45988 7.90945,-6.43354 10.40718,-10.89915 1.96791,-3.4817 7.41748,-7.90948 14.343,-3.97367 4.95758,2.9897 6.43351,9.42324 3.97364,14.34299 -2.45988,4.46564 -3.97364,9.42324 -3.97364,14.34299 0,9.42322 4.95758,18.31664 13.35902,23.27424 8.40142,4.95761 18.31664,4.95761 26.75591,0 8.40145,-4.9576 13.35905,-13.85102 13.35905,-23.27424 0,-9.42324 -4.9576,-18.31663 -13.35905,-23.27424 -4.4656,-2.45987 -9.42321,-3.48167 -14.87279,-3.48167 -4.46563,0 -10.40718,-2.9897 -10.40718,-10.40718 0,-5.94157 4.46561,-10.40718 10.40718,-10.40718 4.95759,0 10.40719,-0.98397 14.87279,-3.48168 8.40145,-4.9576 13.35905,-13.85102 13.35905,-23.27424 0,-9.42324 -4.9576,-18.31666 -13.35905,-23.27424 -3.97364,-2.4599 -8.93124,-3.48169 -13.35902,-3.48169 -4.50347,0.15147 -9.46107,1.13534 -13.39689,3.63305"
         id="path4400" />
      <text
         xml:space="preserve"
         style="font-style:normal;font-weight:normal;font-size:40px;line-height:125%;font-family:sans-serif;letter-spacing:0px;word-spacing:0px;fill:#ffffff;fill-opacity:1;stroke:none;stroke-width:1px;stroke-linecap:butt;stroke-linejoin:miter;stroke-opacity:1"
         x="78.559563"
         y="795.29163"
         id="text4402"
         sodipodi:linespacing="125%"><tspan
           sodipodi:role="line"
           id="tspan4404"
           x="78.559563"
           y="795.29163"
           style="font-style:normal;font-variant:normal;font-weight:bold;font-stretch:normal;font-size:20px;font-family:Sawasdee;-inkscape-font-specification:'Sawasdee Bold';fill:#ffffff;fill-opacity:1">Check balance: https://xrpcharts.ripple.com/#/graph/</tspan></text>
    </g>
  </g>
</svg>
