<?xml version="1.0" encoding="UTF-8" standalone="no"?>
<!-- Created with Inkscape (http://www.inkscape.org/) -->

<svg
   xmlns:dc="http://purl.org/dc/elements/1.1/"
   xmlns:cc="http://creativecommons.org/ns#"
   xmlns:rdf="http://www.w3.org/1999/02/22-rdf-syntax-ns#"
   xmlns:svg="http://www.w3.org/2000/svg"
   xmlns="http://www.w3.org/2000/svg"
   xmlns:xlink="http://www.w3.org/1999/xlink"
   xmlns:sodipodi="http://sodipodi.sourceforge.net/DTD/sodipodi-0.dtd"
   xmlns:inkscape="http://www.inkscape.org/namespaces/inkscape"
   width="210mm"
   height="297mm"
   viewBox="0 0 744.09448819 1052.3622047"
   id="svg2"
   version="1.1"
   inkscape:version="0.91 r13725"
   sodipodi:docname="ripple-back-white.svg">
  <defs
     id="defs4">
    <path
       d="M311.7 49.3c-33.5 19.7-53.3 55.2-53.3 92.7 0 19.7 7.9 39.5 17.8 57.2 7.9 15.8 11.8 43.4-15.8 57.2-19.7 11.8-45.4 3.9-57.2-15.8-11.8-15.8-25.6-31.6-43.4-43.4-33.5-19.7-73-19.7-106.5 0S0 252.5 0 290s19.7 73 53.3 92.7c33.5 19.7 73 19.7 106.5 0 17.8-9.9 31.6-25.6 41.4-43.4 7.9-13.8 29.6-31.6 57.2-15.8 19.7 11.8 25.6 37.5 15.8 57.2-9.9 17.8-15.8 37.5-15.8 57.2 0 37.5 19.7 73 53.3 92.7 33.5 19.7 73 19.7 106.5 0s53.3-55.2 53.3-92.7-19.7-73-53.3-92.7c-17.8-9.9-37.5-13.8-59.2-13.8-17.8 0-41.4-11.8-41.4-41.4 0-23.7 17.8-41.4 41.4-41.4 19.7 0 41.4-3.9 59.2-13.8 33.5-19.7 53.3-55.2 53.3-92.7s-19.7-73-53.3-92.7c-15.8-9.9-35.5-13.8-53.3-13.8-17.7-.1-37.5 3.9-53.2 13.7"
       id="SVGID_1_" />
    <linearGradient
       id="SVGID_3_"
       gradientUnits="userSpaceOnUse"
       x1="608.39"
       y1="127.025"
       x2="628.116"
       y2="127.025"
       gradientTransform="matrix(17.967583,17.967583,-17.967583,17.967583,-8554.455,-13061.933)">
      <stop
         offset="0"
         stop-color="#11aae2"
         id="stop4257" />
      <stop
         offset=".594"
         stop-color="#0880b7"
         id="stop4259" />
      <stop
         offset="1"
         stop-color="#016197"
         id="stop4261" />
    </linearGradient>
    <clipPath
       id="SVGID_2_">
      <use
         xlink:href="#SVGID_1_"
         overflow="visible"
         id="use4254" />
    </clipPath>
    <clipPath
       id="SVGID_2_-6">
      <use
         height="100%"
         width="100%"
         y="0"
         x="0"
         style="overflow:visible"
         xlink:href="#SVGID_1_"
         overflow="visible"
         id="use4254-2" />
    </clipPath>
    <clipPath
       id="SVGID_2_-3">
      <use
         height="100%"
         width="100%"
         y="0"
         x="0"
         style="overflow:visible"
         xlink:href="#SVGID_1_"
         overflow="visible"
         id="use4254-6" />
    </clipPath>
    <clipPath
       id="SVGID_2_-61">
      <use
         height="100%"
         width="100%"
         y="0"
         x="0"
         style="overflow:visible"
         xlink:href="#SVGID_1_"
         overflow="visible"
         id="use4254-8" />
    </clipPath>
    <clipPath
       id="SVGID_2_-7">
      <use
         height="100%"
         width="100%"
         y="0"
         x="0"
         style="overflow:visible"
         xlink:href="#SVGID_1_"
         overflow="visible"
         id="use4254-9" />
    </clipPath>
    <clipPath
       id="SVGID_2_-36">
      <use
         height="100%"
         width="100%"
         y="0"
         x="0"
         style="overflow:visible"
         xlink:href="#SVGID_1_"
         overflow="visible"
         id="use4254-1" />
    </clipPath>
    <clipPath
       id="SVGID_2_-35">
      <use
         height="100%"
         width="100%"
         y="0"
         x="0"
         style="overflow:visible"
         xlink:href="#SVGID_1_"
         overflow="visible"
         id="use4254-62" />
    </clipPath>
    <linearGradient
       inkscape:collect="always"
       xlink:href="#SVGID_3_"
       id="linearGradient4695"
       gradientUnits="userSpaceOnUse"
       gradientTransform="matrix(17.967583,17.967583,-17.967583,17.967583,-8554.455,-13061.933)"
       x1="608.39001"
       y1="127.025"
       x2="628.11603"
       y2="127.025" />
    <clipPath
       id="SVGID_2_-5">
      <use
         height="100%"
         width="100%"
         y="0"
         x="0"
         style="overflow:visible"
         xlink:href="#SVGID_1_"
         overflow="visible"
         id="use4254-3" />
    </clipPath>
  </defs>
  <sodipodi:namedview
     id="base"
     pagecolor="#ffffff"
     bordercolor="#666666"
     borderopacity="1.0"
     inkscape:pageopacity="0.0"
     inkscape:pageshadow="2"
     inkscape:zoom="0.35355339"
     inkscape:cx="609.18452"
     inkscape:cy="87.91705"
     inkscape:document-units="px"
     inkscape:current-layer="layer1"
     showgrid="false"
     inkscape:window-width="1920"
     inkscape:window-height="1043"
     inkscape:window-x="0"
     inkscape:window-y="0"
     inkscape:window-maximized="1" />
  <metadata
     id="metadata7">
    <rdf:RDF>
      <cc:Work
         rdf:about="">
        <dc:format>image/svg+xml</dc:format>
        <dc:type
           rdf:resource="http://purl.org/dc/dcmitype/StillImage" />
        <dc:title />
      </cc:Work>
    </rdf:RDF>
  </metadata>
  <g
     inkscape:label="Layer 1"
     inkscape:groupmode="layer"
     id="layer1">
    <g
       id="g4277"
       transform="translate(32.047255,-86.181096)"
       inkscape:export-xdpi="90"
       inkscape:export-ydpi="90">
      <g
         id="g4656"
         transform="matrix(0.31843514,0,0,0.31843514,5.515717,515.73574)" />
      <g
         id="g4740">
        <rect
           style="opacity:1;fill:#ffffff;fill-opacity:1;fill-rule:evenodd;stroke:#036ba1;stroke-width:1.04490077;stroke-opacity:1"
           id="rect3347-3-7"
           width="678.95508"
           height="278.95511"
           x="0.52245021"
           y="472.88464" />
        <path
           inkscape:connector-curvature="0"
           id="path4248"
           d="m 765.3,228.8 c -5.9,-2 -17.8,-3.9 -29.6,-3.9 -35.5,0 -73,27.6 -73,63.1 l 0,167.7 -80.9,0 0,-297.9 76.9,0 0,29.6 c 17.8,-21.7 51.3,-35.5 86.8,-35.5 11.8,0 17.8,2 27.6,2 l -7.8,74.9 z M 856.1,0 c 27.6,0 51.3,21.7 51.3,51.3 0,29.6 -23.7,51.3 -53.3,51.3 -29.6,0 -53.3,-21.7 -53.3,-51.3 C 802.8,21.7 826.5,0 856.1,0 m 39.4,455.7 -80.9,0 0,-297.9 80.9,0 0,297.9 z m 236.7,-303.8 c -33.5,0 -63.1,11.8 -86.8,29.6 l 0,-23.7 -78.9,0 0,445.8 80.9,0 0,-169.6 c 23.7,17.8 49.3,27.6 80.9,27.6 43.4,0 86.8,-19.7 112.4,-51.3 23.7,-27.6 37.5,-63.1 37.5,-104.5 0,-86.8 -65.1,-153.9 -146,-153.9 m -9.8,236.7 c -49.3,0 -82.8,-33.5 -82.8,-82.8 0,-49.3 33.5,-82.8 82.8,-82.8 43.4,0 76.9,37.5 76.9,82.8 0,47.3 -35.5,82.8 -76.9,82.8 m 562.1,-370.8 80.9,0 0,437.9 -80.9,0 z m 406.4,390.5 c -29.6,33.5 -76.9,53.3 -122.3,53.3 -88.8,0 -155.8,-61.1 -155.8,-155.8 0,-82.8 57.2,-155.8 146,-155.8 82.8,0 142,69 142,151.9 0,7.9 0,15.8 -2,23.7 l -209.1,0 c 3.9,41.4 37.5,71 80.9,71 33.5,0 61.1,-19.7 75,-33.5 l 45.3,45.2 z m -75,-140 c -2,-25.6 -25.6,-53.3 -59.2,-53.3 -33.6,0 -61.1,25.6 -63.1,53.3 l 122.3,0 z M 1491.2,151.9 c -33.5,0 -63.1,11.8 -86.8,29.6 l 0,-23.7 -76.9,0 0,445.8 80.9,0 0,-169.6 c 23.7,17.8 49.3,27.6 80.9,27.6 43.4,0 86.8,-19.7 112.4,-51.3 23.7,-27.6 37.5,-63.1 37.5,-104.5 -2,-86.8 -67.1,-153.9 -148,-153.9 m -9.8,236.7 c -49.3,0 -82.8,-33.5 -82.8,-82.8 0,-49.3 33.5,-82.8 82.8,-82.8 43.4,0 76.9,37.5 76.9,82.8 0,47.3 -35.5,82.8 -76.9,82.8"
           class="st0"
           style="clip-rule:evenodd;fill:#474d55;fill-rule:evenodd"
           transform="matrix(0.31843514,0,0,0.31843514,5.515717,515.73574)" />
        <path
           inkscape:connector-curvature="0"
           clip-path="url(#SVGID_2_-5)"
           id="path4263-9"
           d="M 236.7,-201.2 729.8,293.9 236.7,787 -258.4,293.9 Z"
           class="st1"
           style="fill:url(#linearGradient4695)"
           transform="matrix(0.31843514,0,0,0.31843514,5.515717,515.73574)" />
        <text
           xml:space="preserve"
           style="font-style:normal;font-weight:normal;font-size:40px;line-height:125%;font-family:sans-serif;letter-spacing:0px;word-spacing:0px;fill:#000000;fill-opacity:1;stroke:none;stroke-width:1px;stroke-linecap:butt;stroke-linejoin:miter;stroke-opacity:1"
           x="86.274406"
           y="493.29163"
           id="text4979-7"
           sodipodi:linespacing="125%"><tspan
             sodipodi:role="line"
             id="tspan4981-8"
             x="86.274406"
             y="493.29163"
             style="font-style:normal;font-variant:normal;font-weight:normal;font-stretch:normal;font-size:20px;font-family:Sawasdee;-inkscape-font-specification:Sawasdee">Check balance: https://xrpcharts.ripple.com/#/graph/</tspan></text>
        <text
           xml:space="preserve"
           style="font-style:normal;font-weight:normal;font-size:40px;line-height:125%;font-family:sans-serif;letter-spacing:0px;word-spacing:0px;fill:#000000;fill-opacity:1;stroke:none;stroke-width:1px;stroke-linecap:butt;stroke-linejoin:miter;stroke-opacity:1"
           x="126.60644"
           y="740.98767"
           id="text4979-7-3"
           sodipodi:linespacing="125%"><tspan
             sodipodi:role="line"
             id="tspan4981-8-4"
             x="126.60644"
             y="740.98767"
             style="font-style:normal;font-variant:normal;font-weight:normal;font-stretch:normal;font-size:20px;font-family:Sawasdee;-inkscape-font-specification:Sawasdee">Check value: https://xrpcharts.ripple.com/#/</tspan></text>
      </g>
    </g>
  </g>
  <style
     id="style4592">.st0{fill:#474d55}.st1{clip-path:url(#SVGID_2_);fill:url(#SVGID_3_)}</style>
  <style
     id="style3684"
     type="text/css">
	.st0{fill-rule:evenodd;clip-rule:evenodd;fill:#FFFFFF;}
	.st1{fill:#060707;}
	.st2{fill:#FFFFFF;}
	.st3{fill-rule:evenodd;clip-rule:evenodd;fill:#060707;}
	.st4{fill-rule:evenodd;clip-rule:evenodd;fill:#EC1C24;}
</style>
  <style
     id="style4314">.st0{fill:#35a0e0}.st1{fill:#fff}</style>
</svg>
